<svg width="920" height="260" viewBox="0 0 920 260" fill="none" xmlns="http://www.w3.org/2000/svg" role="img" aria-label="AgentGuard">
  <defs>
    <linearGradient id="bg" x1="0" y1="0" x2="920" y2="260" gradientUnits="userSpaceOnUse">
      <stop offset="0" stop-color="#0c1826"/>
      <stop offset="1" stop-color="#090e17"/>
    </linearGradient>
    <radialGradient id="glow" cx="0.82" cy="0.16" r="0.7">
      <stop offset="0" stop-color="#1c6b7e" stop-opacity="0.42"/>
      <stop offset="1" stop-color="#1c6b7e" stop-opacity="0"/>
    </radialGradient>
    <linearGradient id="s-shield" x1="64" y1="40" x2="192" y2="222" gradientUnits="userSpaceOnUse">
      <stop offset="0" stop-color="#132a3f"/><stop offset="1" stop-color="#0a1420"/>
    </linearGradient>
    <linearGradient id="s-edge" x1="48" y1="40" x2="208" y2="222" gradientUnits="userSpaceOnUse">
      <stop offset="0" stop-color="#8be9f2"/><stop offset="0.55" stop-color="#4bb9cf"/><stop offset="1" stop-color="#2f8ba3"/>
    </linearGradient>
    <linearGradient id="s-node" x1="0" y1="0" x2="0" y2="1">
      <stop offset="0" stop-color="#9beef6"/><stop offset="1" stop-color="#5bc6d8"/>
    </linearGradient>
  </defs>

  <rect x="0" y="0" width="920" height="260" rx="26" fill="url(#bg)"/>
  <rect x="0" y="0" width="920" height="260" rx="26" fill="url(#glow)"/>
  <rect x="1.5" y="1.5" width="917" height="257" rx="24.5" fill="none" stroke="#1f3a4d" stroke-width="1.5"/>

  <!-- icon -->
  <g transform="translate(48,42) scale(0.68)">
    <path d="M64 40 H192 Q208 40 208 56 V120 Q208 178 128 222 Q48 178 48 120 V56 Q48 40 64 40 Z"
          fill="url(#s-shield)" stroke="url(#s-edge)" stroke-width="7" stroke-linejoin="round"/>
    <path d="M52 126 H204" stroke="#e8a33d" stroke-width="2.5" stroke-linecap="round" opacity="0.45"/>
    <path d="M52 126 H132" stroke="#e8a33d" stroke-width="2.5" stroke-linecap="round" opacity="0.9"/>
    <path d="M128 92 L96 152" stroke="#6fd3e2" stroke-width="6" stroke-linecap="round"/>
    <path d="M128 92 L128 152" stroke="#6fd3e2" stroke-width="6" stroke-linecap="round"/>
    <path d="M128 92 L162 152" stroke="#6fd3e2" stroke-width="6" stroke-linecap="round"/>
    <circle cx="128" cy="86" r="15" fill="url(#s-node)"/>
    <circle cx="96" cy="158" r="12" fill="url(#s-node)"/>
    <circle cx="128" cy="158" r="12" fill="url(#s-node)"/>
    <circle cx="162" cy="158" r="12" fill="#e8a33d"/>
    <circle cx="162" cy="158" r="18" fill="none" stroke="#e8a33d" stroke-width="2.5" opacity="0.55"/>
  </g>

  <!-- wordmark -->
  <text x="234" y="126" font-family="'Segoe UI','Helvetica Neue',Arial,sans-serif" font-size="66" font-weight="800" letter-spacing="-1.5">
    <tspan fill="#eef4f8">Agent</tspan><tspan fill="#7fdbe8">Guard</tspan>
  </text>
  <text x="238" y="166" font-family="'Malgun Gothic','Segoe UI',Arial,sans-serif" font-size="21" font-weight="600" fill="#93a7b8">로컬 AI 에이전트 생애주기 보안 스캐너</text>
  <text x="238" y="196" font-family="'Segoe UI',Arial,sans-serif" font-size="15" fill="#5f7688">Secrets · MCP · transcripts · PR diffs · SARIF — AgentOps security scanner</text>

  <!-- chips -->
  <g font-family="'Consolas','Segoe UI',monospace" font-size="13" font-weight="600">
    <rect x="238" y="214" width="96" height="26" rx="13" fill="#122735" stroke="#20465a"/><text x="286" y="231" fill="#7fdbe8" text-anchor="middle">scan-files</text>
    <rect x="342" y="214" width="92" height="26" rx="13" fill="#122735" stroke="#20465a"/><text x="388" y="231" fill="#7fdbe8" text-anchor="middle">scan-diff</text>
    <rect x="442" y="214" width="92" height="26" rx="13" fill="#122735" stroke="#20465a"/><text x="488" y="231" fill="#7fdbe8" text-anchor="middle">scan-mcp</text>
    <rect x="542" y="214" width="78" height="26" rx="13" fill="#122735" stroke="#20465a"/><text x="581" y="231" fill="#7fdbe8" text-anchor="middle">posture</text>
    <rect x="628" y="214" width="118" height="26" rx="13" fill="#1c2a16" stroke="#3c5a24"/><text x="687" y="231" fill="#b6d97a" text-anchor="middle">offboard sweep</text>
  </g>
</svg>
